<?xml version="1.0" encoding="utf-8"?>
<!-- Generator: Adobe Illustrator 16.0.0, SVG Export Plug-In . SVG Version: 6.00 Build 0)  -->
<!DOCTYPE svg PUBLIC "-//W3C//DTD SVG 1.1//EN" "http://www.w3.org/Graphics/SVG/1.1/DTD/svg11.dtd">

<svg version="1.1" xmlns="http://www.w3.org/2000/svg" xmlns:xlink="http://www.w3.org/1999/xlink" x="0px" y="0px"
   width="120px" height="120px" viewBox="0 0 120 120" enable-background="new 0 0 120 120" xml:space="preserve">
  <symbol id="icon_magnifying_glass" width="120px" height="120px" viewBox="0 0 120 120">
    <path stroke-miterlimit="10" d="M48.424,88.104c-21.777,0-39.43-17.654-39.43-39.43
      c0-21.778,17.652-39.431,39.43-39.431s39.432,17.653,39.432,39.431C87.855,70.449,70.201,88.104,48.424,88.104z M112.543,112.793
      L76.305,76.555"/>
  </symbol>

  <symbol id="icon_x" width="120px" height="120px" viewBox="0 0 120 120">
    <path stroke-miterlimit="10" d="M112.543,112.793L7.042,7.292"/>
    <path stroke-miterlimit="10" d="M112.543,7.292L7.042,112.793"/>
  </symbol>

  <symbol id="icon_hamburger" width="120px" height="120px" viewBox="0 0 120 120">
    <path stroke-miterlimit="10" d="M112.75,96.793H7.249"/>
    <path stroke-miterlimit="10" d="M112.75,25.243H7.249"/>
    <path stroke-miterlimit="10" d="M112.75,60H7.249"/>
  </symbol>

  <symbol id="icon_twitter" width="120px" height="120px" viewBox="0 0 120 120">
    <path d="M119.646,22.99c-4.394,1.947-9.108,3.263-14.062,3.854c5.056-3.029,8.938-7.828,10.766-13.544
      c-4.731,2.803-9.971,4.844-15.547,5.938c-4.467-4.759-10.832-7.732-17.871-7.732c-13.522,0-24.485,10.962-24.485,24.482
      c0,1.918,0.216,3.787,0.634,5.581c-20.35-1.019-38.391-10.767-50.467-25.582c-2.108,3.615-3.313,7.82-3.313,12.309
      c0,8.495,4.321,15.988,10.892,20.378c-4.014-0.125-7.788-1.226-11.09-3.061c-0.001,0.104-0.002,0.205-0.002,0.309
      c0,11.862,8.44,21.758,19.641,24.007c-2.055,0.561-4.218,0.857-6.451,0.857c-1.577,0-3.112-0.15-4.606-0.434
      c3.116,9.727,12.157,16.807,22.873,17.004c-8.38,6.566-18.938,10.479-30.409,10.479c-1.978,0-3.926-0.116-5.842-0.343
      c10.834,6.947,23.706,10.999,37.532,10.999c45.036,0,69.662-37.307,69.662-69.662c0-1.063-0.025-2.118-0.07-3.167
      C112.212,32.212,116.364,27.897,119.646,22.99z"/>
  </symbol>

  <symbol id="icon_rss" width="120px" height="120px" viewBox="0 0 120 120">
    <circle cx="20.444" cy="99.556" r="19.778"/>
    <path d="M0.666,60C33.436,60,60,86.564,60,119.334h19.777c0-43.691-35.42-79.112-79.111-79.112V60z"/>
    <path d="M0.666,20.443c54.616,0,98.891,44.275,98.891,98.891h19.777c0-65.54-53.129-118.668-118.668-118.668V20.443z"/>
  </symbol>

  <symbol id="icon_facebook" width="120px" height="120px" viewBox="0 0 120 120">
    <path d="M113.329,0.052H6.669c-3.656,0-6.617,2.962-6.617,6.617V113.33c0,3.654,2.962,6.617,6.617,6.617h57.423v-46.43H48.468
      V55.423h15.624V42.079c0-15.485,9.459-23.918,23.272-23.918c6.617,0,12.305,0.492,13.961,0.713v16.183l-9.58,0.004
      c-7.514,0-8.967,3.57-8.967,8.81v11.553h17.916l-2.332,18.093H82.778v46.43h30.553c3.654,0,6.617-2.963,6.617-6.617V6.669
      C119.948,3.015,116.983,0.052,113.329,0.052z"/>
  </symbol>

  <symbol id="icon_facebook_color" width="120px" height="120px" viewBox="0 0 120 120">
    <path fill="#3B5998" d="M113.329,119.947c3.654,0,6.617-2.963,6.617-6.617V6.671c0-3.655-2.963-6.617-6.617-6.617H6.671
      c-3.655,0-6.617,2.962-6.617,6.617V113.33c0,3.654,2.962,6.617,6.617,6.617H113.329L113.329,119.947z"/>
    <path fill="#FFFFFF" d="M82.778,119.947v-46.43h15.584l2.334-18.094H82.778V43.871c0-5.239,1.453-8.81,8.967-8.81l9.582-0.004
      V18.875c-1.658-0.221-7.346-0.713-13.963-0.713c-13.813,0-23.271,8.433-23.271,23.918v13.344H48.469v18.094h15.624v46.43H82.778
      L82.778,119.947z"/>
  </symbol>
</svg>
